<?xml version="1.0" standalone="no"?>
<!DOCTYPE svg PUBLIC "-//W3C//DTD SVG 20010904//EN"
 "http://www.w3.org/TR/2001/REC-SVG-20010904/DTD/svg10.dtd">
<svg version="1.0" xmlns="http://www.w3.org/2000/svg"
 width="901.000000pt" height="1280.000000pt" viewBox="0 0 901.000000 1280.000000"
 preserveAspectRatio="xMidYMid meet">
<metadata>
Created by potrace 1.15, written by Peter Selinger 2001-2017
</metadata>
<g transform="translate(0.000000,1280.000000) scale(0.100000,-0.100000)"
fill="#9e9e9e" stroke="none">
<path d="M2790 12439 c-916 -57 -1746 -288 -2592 -722 l-198 -101 0 -744 0
-744 27 17 c299 196 870 496 1213 638 302 125 649 234 920 291 270 55 386 67
685 70 265 3 268 3 65 -3 -118 -4 -204 -8 -190 -9 l25 -3 -25 -12 c-14 -6 -52
-24 -84 -39 -33 -15 -65 -28 -73 -28 -7 0 -13 -4 -13 -9 0 -5 -8 -11 -17 -15
-18 -6 -54 -26 -108 -61 -44 -28 -110 -97 -129 -133 -9 -17 -16 -52 -16 -78 0
-37 5 -52 25 -70 14 -13 32 -21 40 -18 8 4 15 2 15 -2 0 -23 144 -9 240 23 25
8 58 17 73 20 16 2 49 13 75 24 66 28 442 152 542 179 47 12 96 26 110 30 14
4 50 13 80 19 30 7 73 16 95 21 22 4 65 14 96 21 32 6 70 9 85 6 77 -16 -52
28 -171 59 -71 18 -121 33 -110 33 27 1 194 -42 291 -74 44 -15 147 -60 229
-100 415 -205 671 -518 742 -908 23 -129 23 -356 -1 -467 -75 -350 -293 -676
-682 -1021 -65 -57 -264 -235 -443 -394 -179 -160 -402 -358 -496 -441 -198
-176 -487 -469 -596 -604 -302 -373 -422 -669 -496 -1220 -12 -92 -16 -265
-20 -857 l-5 -743 821 0 821 0 0 528 c1 961 26 1212 145 1457 125 255 300 436
1115 1150 469 411 663 590 798 734 382 410 578 712 695 1077 103 318 123 560
83 1014 -3 30 2 6 10 -55 9 -60 20 -117 25 -125 25 -40 109 -222 127 -275 57
-170 82 -326 82 -506 0 -208 -41 -431 -110 -594 -62 -149 -76 -181 -80 -185
-3 -3 -20 -34 -39 -70 -57 -110 -243 -377 -294 -422 -11 -10 -18 -18 -15 -18
14 0 -236 -259 -347 -360 -182 -166 -293 -269 -323 -297 -19 -18 -36 -33 -38
-33 -3 0 -97 -85 -162 -147 -19 -18 -36 -33 -38 -33 -3 0 -17 -12 -32 -27 -16
-16 -59 -55 -96 -88 -268 -237 -523 -494 -633 -638 -26 -34 -50 -64 -53 -67
-11 -9 -126 -183 -151 -230 -13 -25 -26 -47 -29 -50 -6 -5 -38 -71 -63 -130
-84 -191 -135 -389 -157 -600 -6 -63 -16 -142 -21 -176 -13 -89 -12 -454 2
-454 7 0 10 -14 7 -35 -2 -19 -1 -35 3 -35 4 0 10 -20 13 -45 4 -25 11 -45 16
-45 5 0 16 -22 25 -50 9 -27 21 -50 26 -50 5 0 25 -16 45 -35 19 -19 47 -38
62 -41 15 -4 30 -12 34 -18 10 -15 196 -15 206 0 4 6 23 16 42 23 20 6 42 20
50 31 8 11 20 20 27 20 6 0 15 9 18 20 3 11 10 20 15 20 5 0 15 18 21 40 7 22
16 40 20 40 24 0 59 236 78 527 19 287 62 509 141 728 31 85 106 252 120 265
10 10 31 45 36 63 4 9 10 17 15 17 5 0 8 3 6 8 -3 11 63 112 75 112 5 0 6 5 3
10 -3 6 -2 10 4 10 5 0 12 8 15 18 4 9 19 31 34 49 15 17 38 45 52 63 55 69
108 128 172 191 37 37 64 70 61 73 -4 3 -1 6 6 6 6 0 60 48 119 108 96 97 217
209 342 318 24 21 58 52 75 68 16 15 63 55 103 89 39 33 72 64 72 68 0 5 4 9
9 9 5 0 24 15 43 32 19 18 74 69 123 113 49 44 114 103 144 130 97 87 415 407
472 475 30 35 60 71 67 78 7 8 25 30 40 50 15 21 30 39 33 42 3 3 43 60 87
127 73 108 188 322 204 378 3 11 17 52 31 90 34 97 48 153 79 305 17 86 17
451 -1 545 -12 67 -52 237 -70 300 -35 117 -155 376 -198 422 -6 7 -15 22 -18
33 -3 11 -10 20 -15 20 -5 0 -12 9 -15 20 -3 11 -12 26 -18 32 -7 7 -28 33
-47 58 -54 71 -288 301 -365 358 -38 29 -79 59 -90 68 -11 8 -40 27 -65 42
-25 14 -47 29 -50 32 -3 3 -23 15 -45 27 -22 11 -56 30 -76 41 -63 35 -72 39
-162 81 -48 23 -91 41 -95 41 -5 0 -27 9 -50 20 -22 11 -47 20 -54 20 -8 0
-25 8 -38 17 -14 10 -27 17 -30 17 -3 -1 -34 33 -70 75 -401 472 -1007 812
-1721 966 -423 90 -955 125 -1449 94z m3308 -1221 c54 -82 70 -108 55 -93 -9
9 -88 122 -106 153 -5 6 -6 12 -3 12 3 0 27 -33 54 -72z m-2865 -85 c-18 -2
-48 -2 -65 0 -18 2 -4 4 32 4 36 0 50 -2 33 -4z m85 -10 c-10 -2 -26 -2 -35 0
-10 3 -2 5 17 5 19 0 27 -2 18 -5z m70 -10 c-10 -2 -26 -2 -35 0 -10 3 -2 5
17 5 19 0 27 -2 18 -5z m55 -10 c-7 -2 -19 -2 -25 0 -7 3 -2 5 12 5 14 0 19
-2 13 -5z m2737 -13 c6 -11 8 -20 6 -20 -3 0 -10 9 -16 20 -6 11 -8 20 -6 20
3 0 10 -9 16 -20z m267 -692 c-3 -8 -6 -5 -6 6 -1 11 2 17 5 13 3 -3 4 -12 1
-19z m10 -40 c-3 -8 -6 -5 -6 6 -1 11 2 17 5 13 3 -3 4 -12 1 -19z m10 -60
c-3 -8 -6 -5 -6 6 -1 11 2 17 5 13 3 -3 4 -12 1 -19z"/>
<path d="M1956 3311 c-3 -5 -5 -441 -3 -969 l2 -959 868 -7 867 -7 0 975 0
976 -864 0 c-498 0 -867 -4 -870 -9z"/>
<path d="M4290 2301 c0 -5 -18 -12 -40 -16 -22 -4 -46 -12 -53 -18 -6 -7 -24
-18 -39 -26 -16 -8 -28 -18 -28 -23 0 -4 -6 -8 -14 -8 -8 0 -18 -9 -21 -20 -3
-11 -10 -20 -15 -20 -5 0 -14 -16 -21 -35 -7 -19 -16 -35 -21 -35 -4 0 -13
-27 -20 -60 -6 -33 -16 -60 -20 -60 -4 0 -8 -65 -8 -145 0 -80 4 -145 9 -145
4 0 11 -18 14 -40 5 -41 48 -132 73 -157 8 -8 14 -19 14 -24 0 -5 6 -9 13 -9
6 0 28 -14 47 -31 19 -17 47 -33 62 -36 15 -3 28 -9 28 -14 0 -5 56 -9 125 -9
69 0 125 4 125 9 0 5 13 11 28 14 15 3 43 19 62 36 19 17 40 31 46 31 6 0 17
14 24 30 7 17 16 30 19 30 18 0 55 101 65 172 6 43 14 78 18 78 4 0 8 29 8 65
0 37 -4 65 -10 65 -5 0 -10 14 -10 31 0 42 -30 169 -40 169 -4 0 -11 11 -14
25 -4 14 -10 25 -15 25 -5 0 -14 14 -21 30 -7 17 -19 30 -26 30 -8 0 -14 4
-14 8 0 5 -12 15 -27 23 -16 8 -34 19 -40 26 -7 6 -31 14 -53 18 -22 4 -40 11
-40 16 0 5 -38 9 -85 9 -47 0 -85 -4 -85 -9z"/>
</g>
</svg>
