<svg width="200" height="200" xmlns="http://www.w3.org/2000/svg" viewBox="0 0 200 200">
  <style type="text/css">
    .st0{fill:#000000;}
    .st1{font-family:'Arial';}
    .st2{font-size:24px;}
  </style>
  <g>
    <path class="st0" d="M50,60c10,10 20,10 30,0s10-20 0-30s-20-10-30,0s-10,20 0,30z"/>
    <path class="st0" d="M150,60c10,10 20,10 30,0s10-20 0-30s-20-10-30,0s-10,20 0,30z"/>
    <path class="st0" d="M100,110c15,15 35,15 50,0s15-35 0-50s-35-15-50,0s-15,35 0,50z"/>
    <path class="st0" d="M70,150c10,10 20,10 30,0s10-20 0-30s-20-10-30,0s-10,20 0,30z"/>
    <path class="st0" d="M130,150c10,10 20,10 30,0s10-20 0-30s-20-10-30,0s-10,20 0,30z"/>
  </g>
  <text x="50" y="190" class="st1 st2">pawscribe</text>
</svg>