<?xml version="1.0" standalone="no"?>
<!DOCTYPE svg PUBLIC "-//W3C//DTD SVG 20010904//EN"
 "http://www.w3.org/TR/2001/REC-SVG-20010904/DTD/svg10.dtd">
<svg version="1.0" xmlns="http://www.w3.org/2000/svg"
 width="1280.000000pt" height="698.000000pt" viewBox="0 0 1280.000000 698.000000"
 preserveAspectRatio="xMidYMid meet">
<metadata>
Created by potrace 1.15, written by Peter Selinger 2001-2017
</metadata>
<g transform="translate(0.000000,698.000000) scale(0.100000,-0.100000)"
fill="#000000" stroke="none">
<path d="M11213 6937 l-45 -43 -64 13 c-50 10 -70 10 -101 0 -48 -15 -63 -46
-70 -142 -5 -68 -8 -75 -32 -84 -14 -5 -62 -41 -106 -81 -196 -177 -363 -278
-551 -332 -69 -20 -101 -23 -244 -22 -162 0 -168 1 -325 43 -158 43 -162 43
-285 38 -181 -8 -302 -46 -634 -197 -258 -118 -372 -149 -627 -171 -331 -28
-800 33 -1370 180 -221 57 -428 118 -804 236 -957 301 -1247 372 -1572 382
-134 4 -198 2 -295 -12 -99 -14 -146 -16 -243 -9 -194 14 -419 10 -511 -9
-548 -115 -972 -560 -1209 -1269 -87 -261 -130 -468 -185 -883 -157 -1184
-366 -1839 -699 -2188 -92 -97 -166 -154 -263 -206 -116 -62 -158 -73 -318
-81 -230 -13 -376 -68 -499 -188 -103 -102 -177 -244 -154 -295 22 -48 237
-107 390 -107 171 0 336 61 483 179 44 35 96 68 125 77 190 63 407 222 575
424 124 150 299 451 393 680 208 506 359 1157 432 1859 38 364 99 569 232 771
62 94 167 207 159 170 -3 -14 -11 -80 -18 -148 -19 -202 1 -356 82 -607 158
-490 152 -1165 -15 -1643 -140 -402 -370 -657 -687 -761 -108 -36 -138 -82
-117 -183 6 -28 46 -134 89 -237 213 -512 393 -1055 475 -1435 37 -171 62
-210 131 -204 30 2 43 10 60 36 l22 32 76 -60 c86 -70 108 -101 130 -187 28
-112 79 -189 147 -224 60 -30 177 -43 404 -43 192 0 215 1 272 22 34 12 69 22
78 22 31 0 72 30 86 61 29 71 3 145 -76 218 -84 77 -208 122 -386 141 -55 5
-114 17 -131 26 -17 9 -64 46 -103 83 -40 36 -98 86 -130 111 -142 109 -281
364 -349 638 -45 181 -51 232 -51 417 0 164 2 185 23 236 43 107 126 207 286
342 l79 67 37 -77 c55 -117 170 -311 332 -563 311 -485 419 -695 488 -950 55
-206 61 -223 95 -257 44 -44 103 -47 134 -7 12 15 21 35 21 45 0 26 7 24 37
-11 14 -17 62 -60 107 -95 116 -91 161 -141 195 -216 37 -82 74 -127 121 -147
46 -19 498 -30 580 -13 30 6 82 16 115 22 82 14 117 36 134 84 19 57 2 110
-56 175 -65 72 -121 98 -256 116 -102 14 -122 20 -222 71 -60 31 -138 64 -172
74 -173 49 -327 195 -489 465 -103 172 -352 695 -400 843 -49 150 -26 358 57
524 107 211 272 379 525 537 311 193 474 427 707 1015 146 369 186 447 248
484 l32 20 56 -31 c31 -17 170 -105 309 -195 369 -239 564 -347 836 -462 465
-198 1025 -334 1625 -396 92 -9 147 -19 153 -27 4 -7 8 -32 8 -54 0 -56 34
-225 71 -352 31 -106 69 -214 178 -495 128 -332 180 -521 201 -731 17 -173 0
-306 -49 -375 -48 -67 -42 -163 12 -189 32 -15 33 -23 8 -46 -11 -11 -40 -18
-75 -20 -60 -4 -97 -23 -186 -97 -25 -20 -59 -44 -77 -53 -40 -20 -140 -21
-213 -1 -59 16 -101 12 -120 -11 -7 -7 -44 -23 -84 -35 -104 -30 -141 -58
-176 -133 -17 -34 -30 -76 -30 -93 0 -38 45 -106 100 -149 52 -41 78 -49 133
-39 59 10 86 9 133 -6 59 -18 137 4 336 91 88 39 198 79 246 91 175 40 297
129 364 264 85 169 95 268 74 702 -26 525 -37 1059 -30 1388 4 165 11 291 15
280 4 -11 17 -63 29 -115 37 -159 113 -418 225 -765 211 -652 243 -767 420
-1515 53 -223 103 -420 112 -438 31 -66 88 -81 131 -34 l26 28 72 -43 c92 -55
146 -114 173 -189 44 -120 56 -131 197 -174 179 -55 423 -64 554 -20 33 11 78
20 100 20 121 0 117 141 -7 262 -64 62 -137 97 -237 113 -64 11 -106 25 -188
68 -58 30 -124 56 -146 59 -121 17 -296 178 -373 343 -46 101 -97 464 -144
1040 -14 171 -40 429 -58 575 -28 234 -32 294 -32 510 1 218 3 255 23 338 33
138 61 199 166 358 194 294 215 345 226 574 7 129 15 184 35 253 30 106 94
235 166 337 102 145 309 339 459 431 49 30 65 35 150 40 73 5 108 13 153 34
50 23 68 27 130 23 78 -4 145 -30 271 -106 92 -55 165 -68 277 -49 112 19 153
38 173 77 8 18 14 36 11 40 -2 4 -40 9 -84 12 -101 6 -147 33 -185 109 -31 63
-35 113 -8 105 72 -22 167 -37 243 -37 l90 0 -7 -47 -7 -47 28 25 c21 19 27
21 22 8 -4 -10 -2 -18 3 -18 12 0 60 70 60 87 0 7 17 21 39 32 52 27 90 74 97
122 4 21 11 39 16 39 12 0 38 64 38 95 0 20 -27 52 -116 137 -145 140 -238
261 -264 345 -30 96 -58 143 -123 206 -143 138 -396 210 -784 224 l-172 6 -7
46 c-9 63 -30 101 -55 101 -11 0 -41 -19 -66 -43z"/>
</g>
</svg>
