<?xml version="1.0" standalone="no"?>
<!DOCTYPE svg PUBLIC "-//W3C//DTD SVG 20010904//EN"
 "http://www.w3.org/TR/2001/REC-SVG-20010904/DTD/svg10.dtd">
<svg version="1.0" xmlns="http://www.w3.org/2000/svg"
 width="973.000000pt" height="1280.000000pt" viewBox="0 0 973.000000 1280.000000"
 preserveAspectRatio="xMidYMid meet">
<metadata>
Created by potrace 1.15, written by Peter Selinger 2001-2017
</metadata>
<g transform="translate(0.000000,1280.000000) scale(0.100000,-0.100000)"
fill="#000000" stroke="none">
<path d="M8980 12792 c0 -7 7 -29 15 -50 16 -40 58 -72 94 -72 18 0 21 6 21
39 0 55 -25 82 -83 88 -31 4 -47 2 -47 -5z"/>
<path d="M9538 12665 c-3 -3 -2 -24 2 -46 10 -54 50 -93 128 -123 70 -27 72
-26 52 46 -14 50 -53 94 -93 106 -52 16 -84 22 -89 17z"/>
<path d="M2558 12618 c-14 -11 -17 -54 -21 -323 -4 -222 -10 -337 -21 -404 -9
-51 -14 -102 -11 -112 4 -10 27 -38 53 -63 l46 -45 -42 -83 c-63 -122 -79
-247 -39 -303 12 -16 16 -13 42 31 15 27 65 99 110 159 98 131 96 121 83 415
-6 151 -54 701 -61 706 -7 5 -103 34 -112 34 -6 0 -18 -6 -27 -12z"/>
<path d="M8336 12498 c11 -71 49 -195 108 -356 31 -84 62 -175 68 -203 10 -44
17 -53 52 -71 104 -53 120 -77 136 -204 54 -443 201 -773 425 -953 33 -26 65
-51 72 -55 6 -3 -24 74 -68 171 -111 245 -258 594 -319 760 -50 132 -156 450
-176 523 -8 29 -18 39 -67 63 -38 18 -61 36 -67 53 -6 14 -10 78 -10 142 0
157 -5 166 -93 170 l-67 3 6 -43z"/>
<path d="M8780 12394 c0 -109 23 -180 122 -379 44 -88 82 -162 84 -164 2 -2
24 4 49 14 36 13 45 21 40 34 -4 9 -31 81 -61 161 -73 192 -127 298 -185 362
l-48 53 -1 -81z"/>
<path d="M9369 12313 c-2 -55 3 -79 27 -130 30 -62 137 -166 213 -207 l54 -29
-6 49 c-16 120 -114 251 -235 317 l-52 28 -1 -28z"/>
<path d="M9184 11973 c10 -52 59 -157 97 -205 29 -36 161 -138 180 -138 13 0
-11 83 -41 147 -37 75 -103 149 -174 197 -30 20 -58 36 -61 36 -4 0 -4 -17 -1
-37z"/>
<path d="M7768 11904 c-8 -9 -32 -16 -52 -17 -33 -1 -36 -3 -31 -22 4 -11 11
-139 15 -285 8 -272 15 -332 51 -402 25 -49 32 -44 66 53 48 139 43 323 -14
488 l-25 73 31 43 c35 48 39 70 15 79 -25 10 -39 7 -56 -10z"/>
<path d="M8371 11788 c94 -598 167 -880 300 -1157 88 -184 196 -338 303 -431
l35 -31 -39 68 c-86 148 -191 419 -295 763 -96 316 -190 590 -244 710 -28 63
-55 118 -60 123 -4 4 -4 -16 0 -45z"/>
<path d="M8961 11809 c-51 -146 81 -411 254 -510 50 -29 125 -47 144 -35 6 4
-43 71 -110 154 -133 162 -209 277 -241 365 -11 31 -24 57 -28 57 -5 0 -13
-14 -19 -31z"/>
<path d="M2788 11343 c-6 -15 -62 -134 -124 -263 -131 -274 -164 -369 -189
-549 -6 -43 -6 -43 22 -37 71 17 119 114 130 263 6 80 7 83 44 113 68 54 102
130 160 353 17 65 27 122 23 127 -5 4 -19 11 -31 15 -19 5 -25 1 -35 -22z"/>
<path d="M8200 11238 c0 -46 30 -301 45 -391 63 -367 194 -664 397 -904 78
-92 168 -173 168 -151 0 25 -84 179 -184 338 -115 184 -187 327 -216 430 -13
48 -26 146 -35 268 -20 252 -45 330 -135 409 -32 28 -40 28 -40 1z"/>
<path d="M7535 11104 c-7 -58 -2 -134 21 -329 17 -140 18 -278 4 -306 -10 -17
-7 -19 28 -19 29 0 45 7 67 30 16 17 35 30 43 30 33 0 -16 395 -63 512 -28 69
-70 138 -84 138 -5 0 -12 -25 -16 -56z"/>
<path d="M2804 10659 c-10 -24 -67 -117 -126 -207 -60 -90 -126 -195 -148
-235 -42 -78 -94 -206 -86 -215 3 -2 31 8 63 23 125 61 251 223 302 389 24 78
38 229 24 264 -9 23 -10 22 -29 -19z"/>
<path d="M7380 10423 c0 -16 -23 -118 -51 -228 -45 -176 -51 -213 -53 -310 0
-60 2 -118 6 -128 8 -18 9 -18 39 0 130 76 212 374 176 636 l-8 57 -55 0 c-52
0 -54 -1 -54 -27z"/>
<path d="M8103 10433 c3 -10 9 -43 12 -73 17 -131 99 -321 189 -439 50 -64
162 -179 237 -242 l49 -41 0 26 c0 61 -27 96 -149 194 -55 44 -83 96 -142 259
-72 203 -123 293 -181 324 -17 9 -19 8 -15 -8z"/>
<path d="M8106 9988 c10 -70 42 -124 107 -183 64 -58 87 -70 63 -32 -8 12 -26
53 -40 91 -34 90 -61 133 -96 151 -40 21 -41 20 -34 -27z"/>
<path d="M2553 9861 c-74 -58 -139 -137 -182 -221 -67 -131 -88 -216 -126
-523 -14 -111 -34 -260 -45 -332 -33 -215 -52 -476 -53 -735 -2 -300 4 -338
103 -645 73 -226 74 -251 9 -442 -53 -158 -66 -242 -84 -548 -8 -143 -22 -288
-30 -323 -39 -163 -120 -255 -385 -432 -185 -124 -254 -191 -306 -297 -22 -45
-32 -54 -64 -63 -107 -29 -185 -123 -177 -213 2 -27 9 -53 15 -59 15 -15 60 5
162 74 158 106 271 239 310 367 11 35 20 72 20 82 0 16 7 19 43 19 70 0 134
38 212 124 67 76 124 118 175 129 25 6 27 14 108 419 95 476 107 551 122 747
18 235 3 370 -65 581 -54 169 -62 222 -41 292 18 61 61 122 69 98 3 -8 18 -69
33 -135 63 -283 168 -531 285 -678 34 -42 64 -76 66 -74 4 4 -68 210 -157 452
-98 264 -133 440 -134 673 0 139 -1 142 -22 142 -12 0 -32 -9 -45 -19 -23 -18
-24 -27 -27 -147 -3 -88 -8 -134 -18 -148 -16 -23 -17 -22 -39 89 -23 112 -30
303 -16 421 7 55 25 176 41 269 42 242 60 386 60 484 0 97 -17 65 143 274 73
96 116 174 140 254 14 47 14 54 1 68 -24 24 -48 18 -101 -24z"/>
<path d="M7101 9687 c-65 -136 -138 -319 -179 -447 -49 -155 -91 -320 -81
-320 5 0 19 -21 32 -47 27 -58 49 -64 86 -24 31 33 41 37 57 21 8 -8 4 -25
-13 -57 -35 -69 -28 -140 21 -206 23 -31 84 -73 93 -63 6 6 -11 120 -52 350
-32 178 -42 296 -26 296 6 0 31 18 55 40 112 103 169 366 108 502 -36 82 -42
79 -101 -45z"/>
<path d="M8034 9588 c22 -138 166 -269 329 -299 32 -5 73 -8 90 -4 37 7 127
46 127 54 0 3 -42 6 -93 7 -104 0 -175 19 -249 66 -55 34 -138 122 -171 179
-29 51 -41 49 -33 -3z"/>
<path d="M7865 9220 c-18 -57 47 -156 131 -202 70 -37 114 -42 182 -22 61 18
61 17 -23 44 -51 16 -102 51 -194 134 -40 36 -77 66 -82 66 -4 0 -10 -9 -14
-20z"/>
<path d="M8035 8813 c-38 -7 -112 -17 -162 -20 -51 -3 -93 -8 -93 -12 0 -3 9
-20 19 -37 27 -44 77 -60 139 -44 45 11 199 85 238 115 18 13 16 14 -26 14
-25 -1 -76 -8 -115 -16z"/>
<path d="M6819 8533 c-16 -78 -6 -188 21 -246 25 -54 82 -115 139 -152 23 -14
42 -25 44 -25 6 0 -81 336 -97 372 -17 39 -72 108 -86 108 -5 0 -14 -26 -21
-57z"/>
<path d="M8445 8500 c-78 -32 -129 -37 -180 -16 -34 15 -36 14 -82 -24 -27
-21 -112 -99 -190 -173 -111 -106 -178 -159 -305 -244 -243 -162 -317 -244
-334 -370 -6 -51 -6 -53 18 -53 38 0 46 15 35 65 -6 25 -7 48 -3 52 4 5 49 10
99 13 162 10 242 64 547 370 102 102 210 207 240 234 63 55 187 142 225 156
14 5 25 12 25 15 0 10 -26 3 -95 -25z"/>
<path d="M7972 8474 c-12 -8 -57 -28 -100 -43 -107 -39 -156 -65 -175 -95 -10
-14 -17 -27 -17 -29 0 -2 26 0 58 5 80 11 220 83 249 127 35 51 29 66 -15 35z"/>
<path d="M2897 8463 c-11 -11 -8 -684 4 -749 25 -146 78 -246 165 -315 27 -21
50 -36 52 -34 2 1 -6 22 -18 45 -36 70 -89 244 -109 358 -35 192 -37 391 -6
622 6 44 5 45 -30 63 -39 19 -48 20 -58 10z"/>
<path d="M2644 8258 c-25 -106 -30 -293 -10 -404 29 -169 96 -337 194 -489 47
-74 99 -140 90 -115 -55 154 -141 427 -157 500 -29 141 -43 310 -35 428 6 99
5 104 -17 128 -12 13 -28 24 -35 24 -7 0 -20 -31 -30 -72z"/>
<path d="M6515 8173 c4 -35 0 -114 -10 -197 -23 -202 -21 -316 6 -316 13 0 63
110 77 171 20 80 25 182 13 240 -15 70 -47 136 -73 150 -19 10 -20 9 -13 -48z"/>
<path d="M3186 7994 c-11 -30 -6 -175 10 -252 19 -94 79 -249 133 -341 42 -72
142 -203 149 -196 3 2 -1 34 -8 70 -7 36 -10 68 -8 70 2 3 19 0 38 -5 19 -5
36 -8 38 -5 7 7 -33 71 -96 152 -104 135 -131 177 -153 233 -22 59 -28 137
-16 210 7 43 6 46 -22 63 -36 21 -57 22 -65 1z"/>
<path d="M8275 7986 c-140 -46 -239 -105 -455 -276 -186 -146 -188 -147 -292
-182 -138 -45 -193 -79 -224 -139 l-15 -30 28 7 c134 32 428 159 596 257 174
103 355 254 426 355 26 38 26 38 -64 8z"/>
<path d="M6276 7829 c-3 -8 -14 -50 -26 -94 -21 -78 -88 -257 -114 -304 -13
-23 -13 -23 -19 14 -6 39 -31 75 -52 75 -7 0 -33 -63 -59 -139 -36 -110 -46
-153 -46 -206 0 -63 2 -69 34 -101 19 -19 38 -34 44 -34 5 0 12 25 16 56 9 78
51 163 139 281 108 144 138 201 144 272 6 61 -6 113 -38 165 -13 21 -20 26
-23 15z"/>
<path d="M6886 7797 c-18 -13 -15 -19 44 -91 73 -90 100 -111 135 -102 23 6
36 26 16 26 -5 0 -26 26 -46 58 -48 72 -94 122 -115 122 -9 0 -24 -6 -34 -13z"/>
<path d="M3647 7708 c10 -91 32 -195 53 -251 26 -68 85 -146 133 -175 l35 -20
7 35 c14 75 -24 160 -90 199 l-45 26 0 59 c0 71 -18 118 -55 147 -39 31 -44
28 -38 -20z"/>
<path d="M6791 7604 l-23 -17 98 -98 98 -98 -67 -139 c-89 -185 -148 -362
-150 -450 -2 -70 7 -122 22 -122 17 0 70 117 95 210 36 130 71 211 108 249 31
31 32 35 32 124 0 149 -60 304 -133 341 -38 20 -51 20 -80 0z"/>
<path d="M4065 7399 c-10 -31 4 -112 26 -148 19 -31 53 -51 88 -51 16 0 17 5
10 48 -14 76 -39 130 -69 152 -36 25 -47 25 -55 -1z"/>
<path d="M7580 7344 c-80 -21 -160 -61 -295 -147 -176 -112 -165 -102 -165
-151 0 -69 -55 -166 -162 -285 -175 -195 -218 -269 -218 -379 0 -49 6 -68 36
-118 52 -86 62 -117 79 -243 8 -63 23 -129 33 -150 17 -34 84 -82 96 -70 3 3
-3 30 -13 60 -11 30 -29 106 -41 169 -11 63 -30 163 -41 222 l-21 108 67 117
c77 136 152 249 347 526 l140 197 38 0 c28 0 50 9 83 34 59 45 81 56 110 56
19 0 28 8 35 29 6 16 8 32 5 35 -10 10 -54 6 -113 -10z"/>
<path d="M4416 7238 c-11 -43 -6 -106 14 -171 25 -79 71 -127 124 -127 l34 0
-20 93 c-23 108 -59 180 -103 207 -40 25 -41 25 -49 -2z"/>
<path d="M5764 7135 c-24 -74 -9 -135 57 -245 66 -109 81 -150 69 -191 -5 -17
-14 -37 -21 -45 -13 -16 0 -39 52 -93 62 -63 113 -84 148 -62 11 7 6 19 -27
56 -48 55 -78 129 -127 315 -49 186 -102 320 -126 320 -5 0 -16 -25 -25 -55z"/>
<path d="M5291 6631 c-41 -41 -30 -47 100 -55 132 -7 169 2 169 44 0 17 -7 20
-42 20 -24 0 -80 3 -124 6 -74 6 -83 5 -103 -15z"/>
<path d="M3481 6497 c-31 -15 -36 -31 -16 -51 44 -44 175 -38 274 12 92 46 81
52 -86 52 -97 0 -156 -5 -172 -13z"/>
<path d="M5261 6439 c-163 -12 -296 -64 -331 -129 -13 -24 -15 -24 57 -5 32 9
153 22 268 31 295 21 446 52 486 100 10 12 -18 14 -182 13 -107 -1 -241 -5
-298 -10z"/>
<path d="M2935 6396 c-79 -25 -223 -115 -225 -140 0 -10 105 0 164 15 56 15
112 55 130 94 9 18 16 36 16 39 0 10 -42 6 -85 -8z"/>
<path d="M5725 6339 c-130 -12 -297 -44 -399 -75 -81 -26 -239 -94 -232 -101
2 -2 45 6 95 17 267 59 549 89 920 97 181 4 277 9 267 15 -68 38 -453 66 -651
47z"/>
<path d="M3322 6222 c-48 -18 -92 -47 -92 -61 0 -10 300 17 382 34 40 8 78 15
83 15 6 0 1 6 -9 12 -12 6 -83 13 -165 15 -124 3 -154 1 -199 -15z"/>
<path d="M2775 6171 c-27 -9 -72 -28 -98 -41 -51 -25 -131 -89 -123 -97 7 -7
190 34 265 60 38 13 80 37 105 59 l41 37 -70 0 c-39 0 -92 -8 -120 -18z"/>
<path d="M5552 6115 c-12 -9 -22 -25 -22 -36 0 -17 8 -19 83 -20 127 -2 152 3
168 32 6 11 9 22 7 23 -2 2 -50 6 -108 10 -87 5 -109 4 -128 -9z"/>
<path d="M6150 6102 c0 -27 29 -63 64 -77 17 -7 67 -16 111 -20 118 -9 170
-23 196 -52 l24 -26 -25 6 c-137 35 -199 33 -226 -9 -9 -13 -14 -27 -11 -30 2
-3 42 -12 88 -20 178 -33 229 -46 261 -67 33 -22 78 -91 67 -101 -3 -4 -28 1
-55 9 -93 28 -164 11 -164 -39 0 -29 16 -36 83 -36 63 0 101 -18 105 -48 4
-24 7 -23 -93 -26 -48 -1 -60 -4 -63 -18 -2 -13 3 -18 18 -18 42 0 148 -44
280 -115 74 -40 160 -81 190 -90 l56 -17 19 -65 c19 -61 21 -64 60 -74 66 -17
126 -70 223 -196 111 -146 141 -173 190 -173 78 0 74 9 -72 162 -143 148 -214
213 -279 256 -24 16 -36 31 -33 41 16 53 17 78 6 132 -7 32 -27 88 -45 123
-40 81 -118 205 -127 206 -13 0 -9 -74 7 -152 18 -81 13 -117 -17 -144 -20
-19 -21 -18 -52 18 -17 20 -63 93 -101 163 -139 251 -170 300 -235 365 -106
107 -212 150 -367 150 -73 0 -83 -2 -83 -18z"/>
<path d="M4424 6046 c-3 -8 -4 -23 -2 -33 3 -15 15 -18 78 -21 103 -4 120 1
120 38 l0 30 -95 0 c-74 0 -97 -3 -101 -14z"/>
<path d="M3595 6013 c-46 -10 -77 -27 -96 -54 l-20 -29 63 0 c35 0 109 -9 166
-20 56 -11 109 -20 117 -20 52 0 -41 92 -115 114 -53 16 -76 18 -115 9z"/>
<path d="M2880 5999 c-152 -14 -296 -72 -391 -158 l-44 -41 40 14 c22 8 74 29
116 48 130 60 228 85 270 70 24 -9 24 -9 -11 -31 -19 -11 -57 -28 -85 -37
-118 -39 -165 -76 -149 -117 5 -13 12 -11 47 14 48 32 118 53 262 75 196 29
285 57 325 99 l23 24 -29 6 c-16 4 -45 11 -64 15 -19 5 -64 12 -100 15 -36 3
-78 7 -95 9 -16 2 -68 0 -115 -5z"/>
<path d="M5185 5953 c-130 -8 -380 -38 -695 -83 -375 -54 -519 -69 -690 -72
-122 -2 -122 -8 -3 -39 101 -27 337 -36 484 -20 104 12 283 48 584 117 167 38
154 37 352 18 57 -6 64 -4 87 19 14 15 26 35 26 47 0 21 -7 22 -145 13z"/>
<path d="M5381 5800 c-379 -26 -699 -103 -945 -226 l-74 -37 -106 26 c-205 52
-326 23 -176 -42 63 -27 198 -40 350 -33 63 2 146 0 183 -6 l67 -11 48 47
c102 102 232 137 602 162 193 13 333 28 384 41 32 9 41 8 60 -9 82 -73 189
-112 332 -119 56 -3 118 -3 138 1 l36 7 -20 39 c-11 22 -20 42 -20 44 0 3 14
13 31 22 17 8 27 19 23 24 -11 11 -228 47 -359 59 -154 15 -417 20 -554 11z"/>
<path d="M6400 5234 c-14 -3 -40 -10 -57 -15 -29 -9 -32 -14 -27 -37 12 -51
18 -52 111 -21 78 27 94 23 267 -58 84 -40 135 -58 172 -61 62 -5 68 5 21 32
-138 82 -196 111 -258 132 -70 24 -180 37 -229 28z"/>
<path d="M854 5029 c-29 -33 -83 -56 -202 -88 -150 -41 -156 -45 -199 -119
-47 -81 -119 -162 -178 -199 -42 -26 -45 -31 -45 -73 0 -25 6 -55 14 -66 14
-20 12 -22 -42 -44 -76 -32 -136 -94 -156 -161 -23 -77 -22 -81 22 -73 123 21
196 112 218 272 5 41 11 52 33 62 63 28 105 68 172 167 99 145 164 183 315
183 100 0 198 -33 337 -113 177 -104 228 -122 267 -97 12 7 11 12 -5 31 -29
32 -142 106 -290 189 -71 40 -155 90 -186 111 l-57 38 -18 -20z"/>
<path d="M6480 4974 c-128 -25 -260 -79 -347 -143 -46 -33 -54 -51 -25 -51 39
0 59 -53 24 -64 -10 -4 -40 -20 -66 -36 -53 -34 -85 -91 -86 -152 0 -55 8 -68
45 -68 46 0 95 37 132 100 61 105 39 98 209 71 178 -28 352 -64 413 -86 24 -8
46 -13 49 -11 12 13 -13 64 -47 96 -28 27 -65 45 -149 74 -152 52 -201 88
-218 159 l-6 27 114 0 c98 0 309 -19 388 -35 22 -5 20 0 -18 35 -67 61 -135
82 -272 86 -63 1 -126 0 -140 -2z"/>
<path d="M3711 4845 c-239 -66 -471 -250 -559 -443 -31 -70 -37 -189 -11 -236
l16 -29 6 41 c22 166 219 325 467 377 143 30 323 15 422 -36 37 -19 112 -79
105 -85 -1 -2 -43 3 -92 11 -136 22 -259 20 -312 -6 -43 -21 -77 -66 -71 -95
3 -15 129 -74 212 -99 62 -19 165 -20 170 -2 3 6 7 24 10 39 4 18 25 42 61 68
61 45 80 70 90 116 5 27 1 38 -24 67 -30 33 -53 45 -199 99 -35 13 -80 38
-100 56 l-37 33 100 -4 c84 -3 109 -8 157 -31 103 -49 174 -150 217 -307 l21
-73 -25 -24 c-30 -27 -39 -60 -31 -106 10 -53 66 -88 66 -42 0 8 7 19 15 26
20 16 43 -3 97 -82 21 -32 45 -58 53 -58 19 0 19 14 0 30 -22 19 -18 38 13 57
74 46 88 76 51 109 -40 35 -57 93 -69 229 -12 144 -16 167 -37 208 -17 34 -69
67 -106 67 l-27 0 44 -87 c74 -148 80 -191 34 -240 -36 -38 -45 -29 -50 50 -8
123 -51 182 -243 339 l-81 65 -149 6 c-117 5 -162 3 -204 -8z"/>
<path d="M5415 4824 c-211 -36 -359 -88 -408 -142 -19 -20 -18 -21 30 -28 80
-11 81 -22 7 -60 -146 -73 -242 -173 -324 -339 -43 -86 -107 -272 -97 -281 2
-2 27 8 56 22 87 44 129 119 136 244 l4 55 40 7 c63 11 87 35 137 136 l46 92
38 0 c35 0 41 -4 69 -50 27 -44 35 -50 63 -50 18 0 52 7 75 15 111 38 269 25
460 -40 55 -19 103 -35 106 -35 9 0 -10 76 -28 110 -10 19 -54 73 -98 120 -84
88 -127 162 -127 218 0 39 6 39 -185 6z m209 -188 c-3 -15 2 -39 15 -64 29
-56 28 -86 -1 -79 -48 12 -344 19 -385 9 -35 -8 -43 -7 -43 4 0 24 63 86 106
104 44 19 153 38 244 43 30 2 58 4 63 5 4 1 5 -9 1 -22z"/>
<path d="M2323 4775 c-190 -14 -277 -35 -356 -85 -38 -24 -52 -28 -67 -20 -79
42 -230 -40 -230 -125 0 -45 16 -53 41 -21 24 30 60 50 107 61 26 5 33 3 39
-12 3 -10 26 -44 50 -76 32 -45 43 -68 43 -96 l0 -36 60 -12 c34 -6 120 -39
193 -74 116 -55 141 -64 202 -67 39 -2 82 1 97 7 26 10 27 11 14 43 -7 18 -16
71 -20 117 -4 47 -11 90 -16 96 -12 15 80 75 125 81 29 5 32 1 94 -106 63
-108 134 -190 166 -190 27 0 55 20 55 38 -1 26 -130 207 -212 297 -69 76 -191
189 -206 191 -4 1 -84 -5 -179 -11z"/>
<path d="M6810 4745 c0 -3 11 -21 24 -38 13 -18 45 -72 72 -121 71 -129 155
-216 209 -216 15 0 16 7 10 53 -18 141 -81 229 -203 285 -76 34 -112 46 -112
37z"/>
<path d="M7540 4690 c-22 -5 -25 -12 -28 -56 -3 -43 1 -55 30 -93 96 -127 93
-164 -19 -220 -24 -12 -50 -32 -59 -46 -15 -22 -14 -30 6 -107 31 -115 38
-329 16 -455 -35 -202 -127 -391 -251 -517 l-70 -71 -6 95 c-3 52 -18 156 -34
230 -31 150 -34 224 -21 445 7 131 6 155 -8 190 -19 45 -44 75 -62 75 -17 0
-34 -107 -34 -211 0 -46 11 -183 25 -304 14 -121 28 -265 31 -320 l6 -100 -40
-70 c-58 -100 -83 -183 -89 -296 -6 -92 -7 -96 -32 -106 -67 -25 -174 -97
-202 -136 l-31 -42 25 -3 c44 -5 102 16 179 67 93 61 118 70 118 43 0 -28 -39
-82 -87 -118 -23 -17 -94 -53 -159 -80 -145 -60 -204 -109 -204 -168 0 -42 18
-53 105 -65 139 -19 248 45 411 240 65 78 65 78 58 127 -6 46 26 242 44 269 4
5 31 17 61 27 122 39 193 105 337 311 47 69 108 149 135 177 l48 51 -39 51
c-74 97 -85 135 -85 276 1 110 6 149 44 320 33 149 44 224 48 320 l5 125 -36
38 c-20 21 -36 44 -36 51 0 14 -38 51 -60 58 -8 2 -26 2 -40 -2z"/>
<path d="M1628 4417 c-15 -23 -43 -64 -63 -91 -38 -52 -46 -106 -21 -138 12
-16 16 -14 44 30 17 26 49 73 71 106 45 64 51 94 23 119 -10 10 -20 17 -23 17
-2 0 -16 -20 -31 -43z"/>
<path d="M5214 4359 c-12 -6 -27 -22 -33 -35 l-11 -24 195 0 195 0 0 30 c0 29
-2 30 -43 30 -24 0 -97 2 -163 5 -77 3 -126 1 -140 -6z"/>
<path d="M6045 4275 c-18 -18 -25 -35 -25 -65 l0 -40 44 0 c56 0 86 32 86 91
0 39 0 39 -40 39 -30 0 -47 -7 -65 -25z"/>
<path d="M2320 4160 c-44 -11 -80 -52 -80 -91 0 -24 4 -29 18 -25 9 3 44 12
78 19 92 22 133 49 134 90 0 14 -9 17 -57 16 -32 -1 -74 -5 -93 -9z"/>
<path d="M60 4058 c-65 -75 -72 -101 -40 -136 32 -34 70 -28 106 15 l32 37 47
-94 c26 -51 85 -154 131 -228 82 -130 84 -136 74 -168 -19 -57 1 -118 70 -209
l37 -50 6 -200 c6 -191 24 -386 50 -525 l12 -65 73 -37 c40 -21 90 -41 110
-44 l37 -6 0 -53 c0 -44 5 -59 31 -92 43 -53 141 -101 228 -112 69 -8 69 -8
97 24 29 33 73 55 206 105 83 31 144 66 150 86 2 6 -16 16 -40 22 -74 19 -125
65 -149 134 -2 4 -32 -2 -68 -13 -139 -43 -299 -35 -437 23 -57 23 -74 35 -79
55 -11 41 5 163 46 372 51 256 65 408 51 544 -22 204 -98 411 -194 528 -94
115 -223 155 -351 110 -32 -11 -73 -32 -91 -46 -41 -30 -45 -31 -45 -5 0 21
-42 71 -57 69 -4 0 -24 -19 -43 -41z"/>
<path d="M1550 4020 c-27 -51 -50 -137 -50 -189 0 -65 16 -94 60 -109 45 -16
63 17 68 127 4 97 -10 156 -45 178 -20 13 -23 12 -33 -7z"/>
<path d="M7169 3963 c-26 -75 -13 -183 22 -183 11 0 39 96 39 136 0 44 -16 84
-34 84 -8 0 -20 -17 -27 -37z"/>
<path d="M6770 3932 c0 -18 39 -141 54 -169 28 -56 38 -50 31 19 -9 85 -22
125 -48 143 -23 16 -37 19 -37 7z"/>
<path d="M3097 3873 c-10 -9 -9 -353 1 -353 11 0 47 39 62 69 22 42 25 175 6
226 -19 49 -51 76 -69 58z"/>
<path d="M6668 3850 c-3 -8 -13 -35 -22 -60 -23 -65 -89 -135 -224 -238 -170
-130 -215 -185 -266 -327 -35 -100 -51 -167 -86 -365 -41 -232 -77 -380 -99
-405 -9 -11 -39 -50 -65 -87 -26 -37 -56 -72 -66 -78 -14 -7 -20 -21 -20 -43
0 -90 -48 -203 -163 -381 -38 -60 -83 -139 -101 -175 -28 -61 -31 -74 -31
-173 0 -58 4 -110 8 -114 4 -5 29 -7 54 -6 52 2 208 77 343 163 86 55 210 178
262 259 54 85 120 222 178 370 73 188 93 231 150 324 96 157 193 444 221 652
17 132 6 351 -25 504 -37 178 -42 197 -48 180z"/>
<path d="M4520 3821 c0 -10 -9 -38 -19 -61 -11 -24 -17 -49 -14 -56 8 -21 33
-24 52 -6 11 9 31 25 46 35 31 22 46 56 38 86 -4 18 -13 21 -54 21 -41 0 -49
-3 -49 -19z"/>
<path d="M103 3644 c10 -148 33 -200 96 -219 21 -6 23 -5 17 22 -4 15 -10 74
-15 129 -5 56 -14 111 -20 123 -13 23 -41 41 -67 41 -15 0 -16 -9 -11 -96z"/>
<path d="M8135 3704 c-97 -13 -156 -28 -202 -50 -29 -14 -53 -29 -53 -34 0
-14 260 -22 347 -11 85 11 167 43 161 63 -3 7 -17 15 -33 20 -36 9 -181 17
-220 12z"/>
<path d="M2292 3688 c-23 -23 -11 -43 46 -80 68 -44 103 -58 143 -58 24 0 29
4 29 25 0 43 -27 82 -73 104 -48 23 -126 28 -145 9z"/>
<path d="M5920 3630 l0 -50 39 0 c40 0 91 30 91 54 0 17 -64 46 -100 46 -29 0
-30 -1 -30 -50z"/>
<path d="M2093 3643 c-13 -20 -14 -28 -5 -31 7 -2 26 -15 41 -28 45 -38 81
-26 81 26 0 60 -84 83 -117 33z"/>
<path d="M3833 3591 c-70 -20 -93 -35 -93 -61 0 -31 26 -44 52 -26 12 9 35 16
51 16 15 0 43 7 62 14 29 13 35 20 35 45 0 37 -14 39 -107 12z"/>
<path d="M1582 3564 c-18 -34 -34 -133 -27 -167 4 -17 13 -43 20 -57 15 -29
16 -28 40 66 20 82 19 127 -4 155 -18 22 -19 22 -29 3z"/>
<path d="M4555 3425 c-7 -118 3 -195 24 -195 10 0 41 166 41 219 0 48 -12 76
-39 90 -18 10 -19 3 -26 -114z"/>
<path d="M5353 3477 c-178 -73 -280 -158 -350 -293 -79 -151 -104 -271 -148
-714 -30 -307 -58 -480 -92 -574 -14 -38 -63 -140 -108 -226 -117 -219 -195
-438 -195 -545 0 -62 23 -109 72 -148 72 -58 153 -31 282 92 88 85 148 161
235 298 319 503 582 1276 585 1718 1 151 -5 169 -81 260 -56 67 -83 114 -83
145 0 28 -20 26 -117 -13z m31 -100 c17 -13 17 -18 2 -93 -8 -43 -29 -162 -47
-263 -35 -210 -76 -359 -122 -446 -38 -72 -128 -169 -134 -144 -5 21 42 322
73 473 41 193 106 375 164 456 24 33 37 37 64 17z"/>
<path d="M3503 3464 c-9 -15 -19 -53 -21 -85 l-4 -59 29 0 c41 0 65 30 71 89
4 42 1 50 -19 65 -31 21 -36 21 -56 -10z"/>
<path d="M8040 3473 c-58 -10 -124 -37 -156 -65 -44 -39 -45 -58 -1 -53 17 2
66 6 107 9 112 8 203 46 230 97 10 18 7 19 -72 18 -46 -1 -94 -4 -108 -6z"/>
<path d="M2196 3378 c-26 -7 -43 -20 -55 -40 -9 -17 -48 -76 -87 -132 -140
-199 -154 -246 -154 -506 0 -211 -10 -292 -46 -361 -27 -55 -39 -56 -48 -6 -3
18 -29 73 -58 123 -118 205 -118 275 3 516 92 183 96 263 19 340 -21 21 -42
38 -48 38 -20 0 -75 -54 -107 -105 -39 -60 -86 -191 -106 -290 -8 -40 -14
-131 -14 -210 0 -155 18 -235 76 -346 60 -112 193 -242 277 -270 17 -6 32 -17
32 -24 0 -8 -9 -83 -19 -167 -30 -231 -39 -375 -63 -948 -25 -591 -27 -757
-10 -815 16 -55 63 -127 100 -154 l30 -21 56 51 c74 67 176 223 237 359 104
233 183 514 294 1045 31 149 58 277 61 286 3 12 22 18 72 22 85 8 204 42 357
101 128 50 258 86 315 86 l35 1 -39 14 c-58 20 -87 45 -122 104 -30 49 -44 95
-93 317 -11 51 -29 112 -41 136 -22 48 -75 116 -83 108 -3 -3 0 -34 5 -70 21
-140 -8 -307 -75 -435 -39 -74 -163 -200 -235 -238 -29 -16 -55 -27 -57 -25
-5 5 20 239 50 478 36 286 43 496 20 630 -28 170 -71 269 -160 368 l-47 52
-116 -1 c-65 -1 -134 -6 -156 -11z m165 -234 c19 -23 29 -277 18 -464 -10
-180 -38 -396 -79 -630 -17 -91 -36 -221 -45 -290 -8 -69 -19 -141 -25 -160
-11 -41 -65 -130 -79 -130 -33 0 -50 693 -23 925 32 264 103 576 167 728 17
40 43 49 66 21z"/>
<path d="M3772 3272 c-119 -161 -211 -381 -272 -648 -45 -202 -100 -605 -180
-1324 -39 -349 -77 -689 -85 -754 -8 -66 -13 -121 -11 -123 2 -2 34 -7 72 -12
82 -10 124 0 158 37 168 184 231 272 279 388 15 34 84 238 156 455 308 936
348 1104 338 1449 -5 189 -20 265 -75 379 -52 108 -181 211 -286 228 -33 5
-36 3 -94 -75z m173 -177 c23 -22 25 -32 25 -118 0 -113 -15 -198 -80 -452
-27 -104 -56 -241 -64 -302 -9 -62 -23 -164 -31 -225 -19 -137 -46 -242 -81
-310 -24 -47 -122 -163 -131 -154 -2 2 5 52 16 112 11 60 36 233 55 384 50
379 63 466 92 613 40 203 134 477 164 477 6 0 22 -11 35 -25z"/>
<path d="M2853 3243 c-4 -21 -7 -90 -7 -153 1 -174 35 -290 103 -354 37 -35
44 -32 31 15 -5 19 -16 106 -24 194 -20 218 -38 289 -80 324 -13 11 -16 7 -23
-26z"/>
<path d="M4463 3005 c13 -47 27 -139 42 -270 8 -77 22 -182 31 -233 l16 -93
-25 -32 c-13 -18 -73 -84 -133 -147 -117 -124 -169 -190 -203 -257 -11 -23
-21 -44 -21 -46 0 -2 33 3 73 11 48 9 132 14 255 13 100 0 182 1 182 3 0 3
-11 26 -24 53 -39 79 -47 144 -56 453 -9 313 -16 364 -65 466 -27 55 -82 116
-72 79z"/>
<path d="M5788 2543 c-32 -34 -48 -73 -48 -119 0 -45 16 -74 39 -74 20 0 22 3
55 133 l23 87 -22 0 c-12 0 -33 -12 -47 -27z"/>
<path d="M5667 2234 c-70 -18 -121 -56 -146 -106 -35 -73 -26 -95 34 -84 43 8
107 70 140 136 14 29 25 55 23 59 -2 4 -25 2 -51 -5z"/>
</g>
</svg>
